<?xml version="1.0" encoding="UTF-8"?>
<!DOCTYPE svg PUBLIC "-//W3C//DTD SVG 1.1//EN" "http://www.w3.org/Graphics/SVG/1.1/DTD/svg11.dtd">
<!-- Creator: CorelDRAW 2020 (64 Bit) -->
<svg xmlns="http://www.w3.org/2000/svg" xml:space="preserve" width="210mm" height="297mm" version="1.1" style="shape-rendering:geometricPrecision; text-rendering:geometricPrecision; image-rendering:optimizeQuality; fill-rule:evenodd; clip-rule:evenodd"
viewBox="0 0 21000 29700"
 xmlns:xlink="http://www.w3.org/1999/xlink"
 xmlns:xodm="http://www.corel.com/coreldraw/odm/2003">
 <defs>
  <style type="text/css">
   <![CDATA[
    .fil0 {fill:#FEFEFE}
   ]]>
  </style>
 </defs>
 <g id="Camada_x0020_1">
  <metadata id="CorelCorpID_0Corel-Layer"/>
  <g id="_2351061303648">
   <polygon class="fil0" points="4290,9820.95 4112,9820.95 4112,9850.61 4052.68,9850.61 4052.68,9880.26 3993.34,9880.26 3993.34,9909.92 3963.67,9909.92 3963.67,9939.58 3934.01,9939.58 3934.01,9969.24 3815.34,9969.24 3815.34,10028.55 3785.68,10028.55 3785.68,10058.21 3726.35,10058.21 3726.35,10087.86 3696.69,10087.86 3696.69,10147.18 3667.02,10147.18 3667.02,10176.83 3637.35,10176.83 3637.35,10206.5 3607.68,10206.5 3607.68,10265.8 3578.02,10265.8 3578.02,10295.47 3548.36,10295.47 3548.36,10384.44 3518.69,10384.44 3518.69,10443.74 3489.03,10443.74 3489.03,10532.72 3459.35,10532.72 3459.35,20141.59 3489.03,20141.59 3489.03,20260.22 3518.69,20260.22 3518.69,20289.87 3548.36,20289.87 3548.36,20349.19 3578.02,20349.19 3578.02,20438.16 3607.68,20438.16 3607.68,20497.48 3637.35,20497.48 3637.35,20527.13 3667.02,20527.13 3667.02,20556.78 3696.69,20556.78 3696.69,20586.45 3726.35,20586.45 3726.35,20616.1 3756.01,20616.1 3756.01,20645.75 3785.68,20645.75 3785.68,20705.07 3815.34,20705.07 3815.34,20734.72 3904.34,20734.72 3904.34,20794.04 3963.67,20794.04 3963.67,20823.7 4052.68,20823.7 4052.68,20853.36 4112,20853.36 4112,20883.01 4171.33,20883.01 4171.33,20912.67 4260.33,20912.67 4260.33,20942.33 4349.33,20942.33 4349.33,20971.98 4467.99,20971.98 4467.99,21001.64 4527.32,21001.64 4527.32,21031.3 4616.32,21031.3 4616.32,21060.96 4705.32,21060.96 4705.32,21090.61 4764.65,21090.61 4764.65,21120.27 4853.65,21120.27 4853.65,21149.93 4942.65,21149.93 4942.65,21179.58 5061.31,21179.58 5061.31,21209.24 5150.31,21209.24 5150.31,21238.9 5239.3,21238.9 5239.3,21268.55 5328.3,21268.55 5328.3,21298.21 5417.29,21298.21 5417.29,21327.87 5506.3,21327.87 5506.3,21357.52 5595.29,21357.52 5595.29,21387.19 5654.63,21387.19 5654.63,21416.84 5773.28,21416.84 5773.28,21446.49 5862.29,21446.49 5862.29,21476.16 5951.28,21476.16 5951.28,21505.81 6040.28,21505.81 6040.28,21535.46 6129.27,21535.46 6129.27,21565.13 6188.61,21565.13 6188.61,21594.78 6277.6,21594.78 6277.6,21624.44 6366.61,21624.44 6366.61,21654.1 6485.26,21654.1 6485.26,21683.75 6544.6,21683.75 6544.6,21713.41 6663.26,21713.41 6663.26,21743.07 6752.26,21743.07 6752.26,21772.72 6811.59,21772.72 6811.59,21802.38 6900.59,21802.38 6900.59,21832.04 6989.58,21832.04 6989.58,21861.69 7108.25,21861.69 7108.25,21891.35 7197.24,21891.35 7197.24,21921.01 7760.89,21921.01 7760.89,21891.35 7849.89,21891.35 7849.89,21861.69 7909.22,21861.69 7909.22,21832.04 7968.56,21832.04 7968.56,21802.38 8027.89,21802.38 8027.89,21772.72 8057.55,21772.72 8057.55,21743.07 8087.22,21743.07 8087.22,21713.41 8116.88,21713.41 8116.88,21683.75 8176.22,21683.75 8176.22,21654.1 8205.88,21654.1 8205.88,21624.44 8235.55,21624.44 8235.55,21565.13 8265.21,21565.13 8265.21,21535.46 8294.87,21535.46 8294.87,21505.81 8324.55,21505.81 8324.55,21446.49 8354.21,21446.49 8354.21,21416.84 8383.88,21416.84 8383.88,21357.52 8413.54,21357.52 8413.54,21298.21 8443.2,21298.21 8443.2,21209.24 8472.87,21209.24 8472.87,21060.96 8502.54,21060.96 8502.54,20408.5 10282.49,20408.5 10282.49,20378.84 10341.82,20378.84 10341.82,20349.19 10490.15,20349.19 10490.15,20319.53 10579.14,20319.53 10579.14,20289.87 10697.81,20289.87 10697.81,20260.22 10757.14,20260.22 10757.14,20200.9 10786.8,20200.9 10786.8,20171.24 10875.8,20171.24 10875.8,20141.59 10935.13,20141.59 10935.13,20111.93 10994.46,20111.93 10994.46,20052.62 11024.13,20052.62 11024.13,20022.96 11053.8,20022.96 11053.8,19993.3 11083.46,19993.3 11083.46,19963.65 11113.13,19963.65 11113.13,19904.33 11172.46,19904.33 11172.46,19874.68 11202.13,19874.68 11202.13,19845.02 11231.79,19845.02 11231.79,19785.71 11261.46,19785.71 11261.46,19756.04 11291.12,19756.04 11291.12,19696.74 11320.78,19696.74 11320.78,19637.42 11350.45,19637.42 11350.45,19607.76 11380.12,19607.76 11380.12,19548.45 11409.79,19548.45 11409.79,19459.48 11439.45,19459.48 11439.45,19370.5 11469.11,19370.5 11469.11,19311.19 11498.78,19311.19 11498.78,19162.91 11528.45,19162.91 11528.45,16701.37 11498.78,16701.37 11498.78,16642.07 11469.11,16642.07 11469.11,16582.75 11439.45,16582.75 11439.45,16553.09 11409.79,16553.09 11409.79,16493.78 11380.12,16493.78 11380.12,16464.12 11320.78,16464.12 11320.78,16434.46 11231.79,16434.46 11231.79,16404.81 11172.46,16404.81 11172.46,16375.15 10875.8,16375.15 10875.8,16404.81 10786.8,16404.81 10786.8,16464.12 10727.47,16464.12 10727.47,16493.78 10697.81,16493.78 10697.81,16523.43 10668.14,16523.43 10668.14,16553.09 10638.47,16553.09 10638.47,16582.75 10608.81,16582.75 10608.81,16612.4 10579.14,16612.4 10579.14,16701.37 10519.81,16701.37 10519.81,19014.62 10490.15,19014.62 10490.15,19133.25 10460.48,19133.25 10460.48,19192.56 10430.81,19192.56 10430.81,19222.22 10401.15,19222.22 10401.15,19251.88 10371.48,19251.88 10371.48,19281.53 10341.82,19281.53 10341.82,19311.19 10282.49,19311.19 10282.49,19340.85 10223.15,19340.85 10223.15,19370.5 10163.82,19370.5 10163.82,19400.16 8502.54,19400.16 8502.54,11659.69 8472.87,11659.69 8472.87,11541.06 8443.2,11541.06 8443.2,11422.43 8413.54,11422.43 8413.54,11363.12 8383.88,11363.12 8383.88,11303.8 8354.21,11303.8 8354.21,11244.48 8324.55,11244.48 8324.55,11214.83 8294.87,11214.83 8294.87,11185.17 8265.21,11185.17 8265.21,11155.51 8235.55,11155.51 8235.55,11125.86 8205.88,11125.86 8205.88,11096.2 8176.22,11096.2 8176.22,11066.54 8146.55,11066.54 8146.55,11036.89 8116.88,11036.89 8116.88,11007.23 8057.55,11007.23 8057.55,10977.57 8027.89,10977.57 8027.89,10947.92 7968.56,10947.92 7968.56,10918.26 7909.22,10918.26 7909.22,10888.6 7849.89,10888.6 7849.89,10799.63 10134.16,10799.63 10134.16,10829.29 10282.49,10829.29 10282.49,10858.95 10312.15,10858.95 10312.15,10888.6 10371.48,10888.6 10371.48,10918.26 10401.15,10918.26 10401.15,10947.92 10430.81,10947.92 10430.81,11007.23 10460.48,11007.23 10460.48,11066.54 10490.15,11066.54 10490.15,11155.51 10519.81,11155.51 10519.81,12905.28 10549.48,12905.28 10549.48,12994.25 10579.14,12994.25 10579.14,13053.56 10608.81,13053.56 10608.81,13083.22 10638.47,13083.22 10638.47,13142.53 10668.14,13142.53 10668.14,13172.19 10697.81,13172.19 10697.81,13201.85 10727.47,13201.85 10727.47,13231.5 10786.8,13231.5 10786.8,13261.17 10816.47,13261.17 10816.47,13290.82 10905.47,13290.82 10905.47,13320.47 11172.46,13320.47 11172.46,13290.82 11261.46,13290.82 11261.46,13261.17 11291.12,13261.17 11291.12,13231.5 11320.78,13231.5 11320.78,13201.85 11380.12,13201.85 11380.12,13172.19 11409.79,13172.19 11409.79,13142.53 11439.45,13142.53 11439.45,13053.56 11469.11,13053.56 11469.11,12994.25 11498.78,12994.25 11498.78,12964.59 11528.45,12964.59 11528.45,11125.86 11498.78,11125.86 11498.78,10888.6 11469.11,10888.6 11469.11,10829.29 11439.45,10829.29 11439.45,10769.98 11409.79,10769.98 11409.79,10681 11380.12,10681 11380.12,10621.69 11350.45,10621.69 11350.45,10562.38 11320.78,10562.38 11320.78,10503.06 11291.12,10503.06 11291.12,10473.41 11261.46,10473.41 11261.46,10414.09 11231.79,10414.09 11231.79,10384.44 11202.13,10384.44 11202.13,10325.12 11172.46,10325.12 11172.46,10295.47 11142.79,10295.47 11142.79,10265.8 11113.13,10265.8 11113.13,10236.15 11083.46,10236.15 11083.46,10206.5 11053.8,10206.5 11053.8,10176.83 11024.13,10176.83 11024.13,10147.18 10994.46,10147.18 10994.46,10117.52 10964.79,10117.52 10964.79,10087.86 10875.8,10087.86 10875.8,10058.21 10846.14,10058.21 10846.14,10028.55 10816.47,10028.55 10816.47,9998.89 10786.8,9998.89 10786.8,9969.24 10697.81,9969.24 10697.81,9939.58 10608.81,9939.58 10608.81,9909.92 10579.14,9909.92 10579.14,9880.26 10460.48,9880.26 10460.48,9850.61 10401.15,9850.61 10401.15,9820.95 10223.15,9820.95 10223.15,9791.29 4290,9791.29 "/>
   <polygon class="fil0" points="12893.07,12371.45 12833.74,12371.45 12833.74,12401.11 12744.74,12401.11 12744.74,12430.77 12715.08,12430.77 12715.08,12460.43 12685.41,12460.43 12685.41,12490.08 12655.75,12490.08 12655.75,12549.4 12626.09,12549.4 12626.09,12608.71 12566.75,12608.71 12566.75,14358.47 10341.82,14358.47 10341.82,14388.13 10282.49,14388.13 10282.49,14417.79 10223.15,14417.79 10223.15,14477.1 10163.82,14477.1 10163.82,14506.76 10134.16,14506.76 10134.16,14566.07 10074.82,14566.07 10074.82,14595.73 10045.16,14595.73 10045.16,14714.36 10015.49,14714.36 10015.49,14921.95 10045.16,14921.95 10045.16,15040.59 10074.82,15040.59 10074.82,15070.24 10104.49,15070.24 10104.49,15129.56 10134.16,15129.56 10134.16,15159.21 10163.82,15159.21 10163.82,15188.86 10193.49,15188.86 10193.49,15218.53 10223.15,15218.53 10223.15,15248.18 10252.82,15248.18 10252.82,15277.84 10282.49,15277.84 10282.49,15307.5 10371.48,15307.5 10371.48,15337.15 10401.15,15337.15 10401.15,15366.81 12566.75,15366.81 12566.75,16997.95 12596.41,16997.95 12596.41,17086.92 12626.09,17086.92 12626.09,17146.23 12655.75,17146.23 12655.75,17175.89 12685.41,17175.89 12685.41,17235.2 12715.08,17235.2 12715.08,17264.86 12774.41,17264.86 12774.41,17294.52 12833.74,17294.52 12833.74,17324.17 12893.07,17324.17 12893.07,17353.83 12922.74,17353.83 12922.74,17383.49 13189.73,17383.49 13189.73,17353.83 13249.06,17353.83 13249.06,17324.17 13308.39,17324.17 13308.39,17294.52 13367.73,17294.52 13367.73,17264.86 13427.06,17264.86 13427.06,17175.89 13486.38,17175.89 13486.38,17116.57 13516.06,17116.57 13516.06,17086.92 13545.72,17086.92 13545.72,17057.26 13575.39,17057.26 13575.39,16997.95 13664.38,16997.95 13664.38,16938.63 13694.05,16938.63 13694.05,16908.98 13723.72,16908.98 13723.72,16849.66 13753.38,16849.66 13753.38,16820.01 13783.05,16820.01 13783.05,16790.34 13812.71,16790.34 13812.71,16760.69 13842.37,16760.69 13842.37,16731.04 13901.71,16731.04 13901.71,16701.37 13931.38,16701.37 13931.38,16642.07 13990.7,16642.07 13990.7,16612.4 14020.37,16612.4 14020.37,16582.75 14050.04,16582.75 14050.04,16553.09 14079.71,16553.09 14079.71,16523.43 14109.37,16523.43 14109.37,16493.78 14139.04,16493.78 14139.04,16464.12 14228.03,16464.12 14228.03,16434.46 14257.7,16434.46 14257.7,16375.15 14317.03,16375.15 14317.03,16315.84 14346.69,16315.84 14346.69,16286.18 14376.36,16286.18 14376.36,16226.86 14435.7,16226.86 14435.7,16167.55 14495.02,16167.55 14495.02,16108.24 14554.35,16108.24 14554.35,16078.58 14584.02,16078.58 14584.02,16048.92 14643.36,16048.92 14643.36,15989.6 14702.68,15989.6 14702.68,15959.95 14732.35,15959.95 14732.35,15930.3 14762.02,15930.3 14762.02,15900.63 14791.69,15900.63 14791.69,15811.66 14821.35,15811.66 14821.35,15782.01 14851.01,15782.01 14851.01,15752.35 14880.68,15752.35 14880.68,15722.69 14910.34,15722.69 14910.34,15693.04 14940.01,15693.04 14940.01,15663.38 14969.68,15663.38 14969.68,15633.72 15029.01,15633.72 15029.01,15604.07 15058.67,15604.07 15058.67,15574.41 15088.34,15574.41 15088.34,15544.75 15118.01,15544.75 15118.01,15515.1 15147.68,15515.1 15147.68,15485.44 15177.34,15485.44 15177.34,15455.78 15207,15455.78 15207,15426.12 15236.67,15426.12 15236.67,15396.47 15266.33,15396.47 15266.33,15366.81 15296,15366.81 15296,15337.15 15325.67,15337.15 15325.67,15307.5 15355.33,15307.5 15355.33,15277.84 15385,15277.84 15385,15248.18 15414.66,15248.18 15414.66,15218.53 15444.33,15218.53 15444.33,15159.21 15473.99,15159.21 15473.99,15129.56 15503.66,15129.56 15503.66,15070.24 15533.33,15070.24 15533.33,15040.59 15562.99,15040.59 15562.99,14655.04 15533.33,14655.04 15533.33,14595.73 15503.66,14595.73 15503.66,14566.07 15473.99,14566.07 15473.99,14506.76 15444.33,14506.76 15444.33,14477.1 15414.66,14477.1 15414.66,14447.44 15385,14447.44 15385,14417.79 15355.33,14417.79 15355.33,14388.13 15325.67,14388.13 15325.67,14358.47 15296,14358.47 15296,14328.82 15266.33,14328.82 15266.33,14299.15 15236.67,14299.15 15236.67,14269.5 15207,14269.5 15207,14239.85 15177.34,14239.85 15177.34,14210.18 15147.68,14210.18 15147.68,14180.53 15118.01,14180.53 15118.01,14150.88 15088.34,14150.88 15088.34,14121.21 15058.67,14121.21 15058.67,14091.56 15029.01,14091.56 15029.01,14061.9 14999.34,14061.9 14999.34,14032.24 14969.68,14032.24 14969.68,14002.59 14940.01,14002.59 14940.01,13972.93 14910.34,13972.93 14910.34,13943.27 14880.68,13943.27 14880.68,13913.62 14851.01,13913.62 14851.01,13883.96 14821.35,13883.96 14821.35,13854.3 14791.69,13854.3 14791.69,13824.65 14762.02,13824.65 14762.02,13794.99 14732.35,13794.99 14732.35,13765.33 14702.68,13765.33 14702.68,13735.67 14673.02,13735.67 14673.02,13706.02 14643.36,13706.02 14643.36,13676.36 14613.69,13676.36 14613.69,13646.7 14584.02,13646.7 14584.02,13617.05 14554.35,13617.05 14554.35,13587.39 14524.69,13587.39 14524.69,13557.73 14495.02,13557.73 14495.02,13528.08 14465.36,13528.08 14465.36,13498.41 14435.7,13498.41 14435.7,13468.76 14406.03,13468.76 14406.03,13439.11 14376.36,13439.11 14376.36,13409.44 14346.69,13409.44 14346.69,13379.79 14317.03,13379.79 14317.03,13350.14 14287.37,13350.14 14287.37,13320.47 14257.7,13320.47 14257.7,13290.82 14228.03,13290.82 14228.03,13261.17 14198.36,13261.17 14198.36,13231.5 14168.7,13231.5 14168.7,13201.85 14139.04,13201.85 14139.04,13172.19 14109.37,13172.19 14109.37,13142.53 14079.71,13142.53 14079.71,13112.88 14050.04,13112.88 14050.04,13083.22 14020.37,13083.22 14020.37,13053.56 13990.7,13053.56 13990.7,13023.91 13961.04,13023.91 13961.04,12994.25 13931.38,12994.25 13931.38,12964.59 13901.71,12964.59 13901.71,12934.93 13872.05,12934.93 13872.05,12905.28 13842.37,12905.28 13842.37,12875.62 13812.71,12875.62 13812.71,12845.96 13783.05,12845.96 13783.05,12816.31 13753.38,12816.31 13753.38,12786.65 13723.72,12786.65 13723.72,12756.99 13694.05,12756.99 13694.05,12727.34 13664.38,12727.34 13664.38,12697.68 13634.72,12697.68 13634.72,12668.02 13605.05,12668.02 13605.05,12638.37 13575.39,12638.37 13575.39,12608.71 13545.72,12608.71 13545.72,12579.05 13516.06,12579.05 13516.06,12549.4 13486.38,12549.4 13486.38,12519.74 13456.72,12519.74 13456.72,12490.08 13427.06,12490.08 13427.06,12460.43 13397.39,12460.43 13397.39,12430.77 13338.06,12430.77 13338.06,12401.11 13308.39,12401.11 13308.39,12371.45 13249.06,12371.45 13249.06,12341.79 12893.07,12341.79 "/>
  </g>
 </g>
</svg>
