<?xml version="1.0" encoding="UTF-8"?>
<!DOCTYPE svg PUBLIC "-//W3C//DTD SVG 1.1//EN" "http://www.w3.org/Graphics/SVG/1.1/DTD/svg11.dtd">
<!-- Creator: CorelDRAW 2020 (64 Bit) -->
<svg xmlns="http://www.w3.org/2000/svg" xml:space="preserve"  version="1.1" 
viewBox="0 0 21000 29700"
 xmlns:xlink="http://www.w3.org/1999/xlink"
 xmlns:xodm="http://www.corel.com/coreldraw/odm/2003">
 <defs>
  <style type="text/css">
   <![CDATA[
    .str0 {stroke:#300219;stroke-width:141.11;stroke-miterlimit:22.9256}
    .str1 {stroke:#300219;stroke-width:7.62;stroke-miterlimit:22.9256}
    .fil0 {fill:none}
    .fil2 {fill:#E6E7E8}
    .fil1 {fill:#300219}
    .fil3 {fill:#E6E7E8;fill-rule:nonzero}
   ]]>
  </style>
 </defs>
 <g id="Camada_x0020_1">
  <metadata id="CorelCorpID_0Corel-Layer"/>
  <path class="fil0 str0" d="M2433.88 6752.01c1.91,-17.09 3.8,-34.19 5.64,-51.29 13.67,-126.46 74.76,-229.99 178.86,-303.09 255.33,-179.31 553.02,-358.25 854.56,-445.38 179.93,-51.99 362.94,-63.04 545.06,-14.96 207.51,54.78 376.18,185.76 483.93,371.56 112.11,193.3 132.35,431.46 124.06,650.47 -8.54,225.47 -33.43,458.67 -56.03,683.15 -44.05,437.72 -71.13,879.44 -94.17,1318.71 -10.78,205.65 -162.02,370.88 -365.91,399.77 -91.35,12.95 -182.39,28.07 -273.26,44.04 -90.63,15.91 -181,33.68 -270.76,53.93 -14.53,3.27 -29,5.83 -43.38,7.67 -15.92,10.25 -32.73,19.63 -50.39,28.1 -110.66,53.04 -224.93,94.46 -345.77,117.16 -194.67,36.57 -396.37,24.13 -574.6,-68.17 -51.66,-26.75 -98.52,-59.05 -140.72,-95.92 -42.11,59.85 -88.65,116.43 -140.37,168.11 -129.74,129.65 -291.06,218.9 -471.12,254.69 -50.44,10.02 -101.68,15.57 -153.05,17.01 19.37,192.12 40.38,385.62 68.92,576.37 18.42,123.21 -12.65,236.28 -91.46,332.77 -78.81,96.48 -183.41,149.5 -307.82,156.03 -96.92,5.09 -193.74,11.17 -290.58,17.54 -99.24,6.53 -198.39,13.9 -297.49,22.24 -118.06,9.93 -223.23,-24.03 -313.18,-101.12 -89.96,-77.1 -139.61,-175.84 -147.85,-294.03 -14.54,-208.34 -30.41,-416.59 -44.07,-624.99 -33.49,25.94 -68.6,50.3 -105.42,72.98 -165.07,101.67 -348.57,166.23 -540.61,192.08 -170.29,22.91 -344.46,14.52 -512.01,-23.31 -118.86,-26.83 -230.81,-69.71 -334.3,-129.82 -51.87,111.58 -151,196.39 -277.79,229.79 -205.24,54.08 -415.93,94.88 -627.49,113.54 -184.96,16.31 -374.03,11.9 -557.11,-20.16 -182.37,-31.92 -356.87,-88.91 -519.45,-177.86 -184.46,-100.93 -339.48,-242.35 -428.39,-435.8 -72.41,-157.55 -84,-312.62 -90.97,-482.35 -8.65,-210.74 22.11,-411.19 113.51,-602.57 88.47,-185.23 214.57,-344.34 366.69,-481.37 146.61,-132.05 308.5,-246.59 480.89,-342.48 167.46,-93.15 342.1,-174.16 522.26,-239.6 195.72,-71.11 401.6,-123.4 604.38,-170.11 124.45,-28.67 242.8,-4.58 346.15,70.45 103.34,75.02 162.9,180.09 174.19,307.3 0.38,4.34 0.75,8.68 1.11,13.03 31.77,-26.5 64.41,-52.08 97.89,-76.77 149.43,-110.2 307.28,-204.92 480.56,-272.75 164.21,-64.28 338.8,-104.58 515.83,-102.67 130.93,1.42 256.75,26.55 372.22,78.8 14.96,-130.91 85.14,-240.87 199.85,-311.48 162.03,-99.75 326.67,-200.88 494.08,-291.32 126.6,-68.39 255.06,-132.3 388.33,-186.7 171.67,-70.06 356.4,-117.07 542.44,-120.92 190.36,-3.93 364.54,54.61 504.11,169.7zm-4213.46 2264.21c4.09,-70.83 12.8,-141.08 26.7,-210.4 -0.17,0.03 -0.36,0.07 -0.54,0.1 -50.57,9.59 -102.78,20.62 -151.97,35.85 -86.66,26.84 -164.63,66.93 -238.15,119.91 -47.45,34.18 -92.79,75.5 -121.81,126.93 -11.04,19.55 -21.82,42.79 -23.2,65.95 33.01,0.29 74.5,-4.65 95.86,-7.68 55.74,-7.93 111.34,-20.1 165.26,-36.26 82.61,-24.75 167.58,-60.42 247.85,-94.4zm-4005.27 -309.35c247.19,-56.33 500.18,-96.61 753.28,-111.58 133.97,-7.93 270.6,-7.5 403.65,11.59 142.91,20.51 283.03,61.79 404.94,141.11 171.57,111.64 271.94,288.53 292.74,491.42 13.51,131.84 -3.88,279.83 -29.23,409.11 -31.59,161.04 -38.98,341.59 -42.72,505.36 -4.98,218.15 -171.28,395.7 -388.63,414.93 -95.28,8.43 -190.38,18.85 -285.59,28.04 -91.47,8.84 -183.11,16.79 -273.92,31.22 -26.24,4.17 -52.14,6.06 -77.56,5.71 -22.85,10.38 -47,18.95 -72.33,25.62 -95.74,25.18 -192.11,42.96 -289.89,57.86 -146.02,22.26 -301.1,37.22 -447.63,12.49 -52.88,-8.92 -104.02,-22.86 -152.7,-41.78 -61.8,77.95 -151.02,133 -256.11,152.66 -118.61,22.19 -237.49,44.44 -355.23,70.89 -131.81,29.61 -263.26,63.07 -394.64,94.7 -188.05,45.27 -376.25,-36.7 -471.2,-205.22 -1.76,-3.12 -3.52,-6.25 -5.27,-9.38 -3.53,24.25 -7.03,48.52 -10.51,72.78 -24.68,171.88 -142.17,304.94 -309.68,350.68 -96.98,26.48 -193.98,53 -290.72,80.36 -103.55,29.28 -207.15,62.93 -309.86,95.16 -148.06,46.47 -298,13.74 -413.22,-90.21 -115.22,-103.94 -163.17,-249.73 -132.14,-401.78 25.76,-126.23 51.35,-252.47 80.21,-378.04 41.26,-209.76 79.26,-420.15 122.14,-629.6 38.36,-187.43 77.36,-375.52 103.34,-565.2 -9.83,-154.52 -19.35,-309.07 -26.06,-463.76 -10.22,-90.42 -17.37,-181.08 -26.15,-271.64 -12.41,-128.02 27.47,-243.11 116.42,-336.01 88.96,-92.89 202.22,-137.71 330.65,-130.85 130.67,6.99 261.42,12.1 392.07,19.12 110.9,5.96 221.87,10.48 332.88,13.75 151.11,4.46 278.84,80.18 355.26,210.61 5.63,9.61 11.26,19.22 16.89,28.84 16.3,-25.66 35.69,-50.04 58.12,-73 91.04,-93.2 206.76,-136.93 336.69,-127.22 89.85,6.7 179.66,11.44 269.67,15.21 93.02,3.9 186.28,6.41 279.33,9.77 225.11,8.14 404.5,189.03 410.76,414.2 0.67,24.03 1.31,48.06 1.95,72.08zm-3487.5 431.31c44.2,42.95 84.49,90.29 120.29,141.79 107.7,154.92 169.36,331.97 190.88,518.87 20.39,177.08 6.78,357.23 -23.16,532.42 -30.31,177.33 -82.23,348.85 -149.93,515.37 -73.98,181.98 -174.92,352.87 -290.18,511.61 -128.2,176.57 -279.98,329.87 -454.71,460.38 -165.36,123.51 -346.04,225.58 -541.32,293.52 -184.85,64.31 -382.1,98.36 -577.49,71.48 -224.73,-30.92 -419.09,-138.71 -555.57,-320.53 -102.1,-136.01 -158.91,-294.63 -183.84,-460.13 -6.27,26.98 -12.47,53.98 -18.61,80.99 -58.91,259.35 -116.44,530.92 -145.48,795.49 -19.34,176.14 -137.1,315.37 -307.6,363.66 -110.99,31.44 -221.8,64.23 -332.95,95 -120.36,33.33 -241.49,64.48 -361.99,97.62 -144.44,39.71 -287.28,5.85 -398.53,-94.47 -111.24,-100.33 -159.63,-238.93 -135,-386.69 79.09,-474.45 199.06,-944.45 322.86,-1408.98 73.71,-276.57 145.43,-553.62 213.12,-831.65 -140.78,26.4 -275.05,-14.84 -377.5,-116.28 -104.93,-103.91 -147.04,-241.82 -118.06,-386.62 17.64,-88.12 39.85,-178 51,-267.07 18.07,-144.26 4.69,-311.14 0.49,-456.94 -6.21,-215.74 146.79,-399.95 360.01,-433.43 317.44,-49.85 634.93,-99.25 952.67,-147.14 121.46,-18.3 243.04,-35.66 364.93,-50.82 114.45,-14.23 228.95,-27.99 343.52,-41.16 62.31,-7.16 124.7,-13.57 187,-20.86 125.25,-14.65 238.72,21.12 332.93,104.95 1.64,1.46 3.28,2.94 4.9,4.41 71.33,-129.56 206.14,-214.21 362,-218.15 101.09,-2.56 202.15,-6.4 303.19,-10.3 91.51,-3.54 182.98,-8.1 274.41,-13.22 197.58,-11.05 371.71,109.62 430.73,298.49 48.95,156.65 106.76,313.53 163.19,467.61 38.58,105.35 36.09,212.45 -6.2,310.78z"/>
  <g id="_2351133574368">
   <path class="fil1 str1" d="M2538.32 7253.42c12.15,-77.54 23.42,-155.77 31.31,-233.08 10.01,-98.12 22,-196.19 32.6,-294.27 7.9,-73.1 43.21,-132.94 103.37,-175.19 237.43,-166.72 519.03,-337.87 799.51,-418.92 148.2,-42.83 298.33,-53.47 448.49,-13.83 161.08,42.53 290.1,143.28 373.74,287.49 93.15,160.63 106.64,370.88 99.76,552.47 -8.38,221.2 -32.97,450.29 -55.13,670.5 -44.25,439.61 -71.49,883.18 -94.62,1324.35 -6.23,118.86 -93.65,214.36 -211.5,231.06 -93.1,13.2 -185.89,28.6 -278.5,44.87 -93.24,16.37 -186.22,34.67 -278.58,55.49 -23.13,5.22 -46,7.27 -68.3,6.23 -18.2,16.89 -39.37,31.22 -63.24,42.66 -96.22,46.12 -195.6,82.66 -300.7,102.4 -154.24,28.98 -316.39,22.28 -457.98,-51.05 -109.27,-56.58 -189.38,-146.62 -244.76,-252.13 -63.6,129.22 -142.63,254.68 -244.52,356.49 -104.4,104.33 -233.51,176.37 -378.46,205.18 -72.33,14.38 -146.68,17.18 -220.05,10.47 -32.15,-2.94 -64.05,-7.48 -95.52,-13.92 4.5,56.84 9.65,113.63 15.31,170.36 20.86,208.83 43.14,419.58 74.2,627.18 10.65,71.21 -7.31,136.57 -52.86,192.33 -45.55,55.77 -106.01,86.42 -177.92,90.19 -97.49,5.12 -194.89,11.24 -292.3,17.65 -100.11,6.58 -200.13,14.01 -300.09,22.42 -68.24,5.74 -129.03,-13.88 -181.02,-58.44 -51.99,-44.56 -80.69,-101.64 -85.46,-169.95 -19.83,-284.33 -42.2,-568.51 -57.89,-853.11 -3.7,-67.11 -5.54,-134.04 -5.82,-200.86 -92.99,147.13 -208.57,271.3 -357.84,363.25 -143.39,88.33 -302.62,144.22 -469.43,166.67 -148.86,20.03 -301.13,12.61 -447.58,-20.46 -145.97,-32.96 -279.14,-93.84 -396.46,-187.13 -39.47,-31.38 -75.58,-65.61 -107.98,-102.61 -4.35,53.3 -6.14,105.97 -7.82,160.33 -3.41,110.74 -76.37,202.45 -183.51,230.68 -194.95,51.36 -395.25,90.34 -596.22,108.07 -168.95,14.89 -342.04,11.16 -509.3,-18.13 -162.63,-28.47 -318.24,-78.85 -463.26,-158.19 -149.72,-81.92 -278.4,-195.2 -350.73,-352.57 -61.01,-132.77 -68.68,-270.63 -74.56,-413.89 -7.43,-180.84 17.45,-352.44 95.94,-516.77 78.11,-163.55 189.88,-303.5 324.16,-424.45 136.27,-122.76 286.8,-229.18 447.04,-318.31 158.79,-88.32 324.39,-165.2 495.21,-227.26 188.32,-68.41 387.02,-118.6 582.12,-163.54 71.93,-16.57 140.33,-2.65 200.07,40.72 59.73,43.36 94.15,104.09 100.68,177.62 3.62,40.77 6.01,81.62 9.22,122.42 4.37,55.61 12.54,111.25 17.72,166.9 3.49,37.55 5.7,75.14 7.89,112.74 99.98,-128.82 217.15,-240.63 348.44,-337.45 136.36,-100.56 280.37,-187.62 438.51,-249.52 142.31,-55.71 294.03,-91.81 447.53,-90.14 159.79,1.73 309.53,45.68 435.44,145.79 38.42,30.55 72.53,64.36 102.67,100.96 4.1,-101.38 7.85,-202.76 11.36,-304.16 2.94,-85.01 44.65,-156.73 117.08,-201.32 158.78,-97.74 320.19,-196.99 484.24,-285.62 120.64,-65.17 243.04,-126.21 370.04,-178.05 150.7,-61.5 313.92,-104.04 477.31,-107.42 197.41,-4.08 367.99,75.94 485.92,234.86 56.93,76.72 100.23,161.77 133.03,250.94zm78.62 332.13c3.19,23.51 5.98,47.08 8.39,70.68 13.19,-14.24 26.69,-28.2 40.46,-41.9 -5.6,-2.52 -11.15,-5.27 -16.64,-8.23 -11.41,-6.15 -22.16,-13.03 -32.21,-20.55zm-4119.2 1002.65c-9.32,2.06 -18.85,3.6 -28.57,4.59 -88.15,8.93 -174.89,22.27 -261.9,38.77 -57.17,10.84 -115.63,23.42 -171.24,40.65 -104.98,32.51 -200.23,81.21 -289.3,145.4 -69.1,49.79 -130.63,109.21 -172.78,183.88 -30.25,53.59 -49.38,110.53 -46.03,172.54 1.79,33 7.44,79.26 27.23,107.25 15.28,21.61 39.33,33.6 64.02,41.4 59.13,18.66 148.21,10.65 208.34,2.1 64.46,-9.17 128.69,-23.24 191.06,-41.92 96.12,-28.79 194.11,-70.53 286.5,-109.62 28.23,-11.94 57.22,-18.53 85.96,-19.95 -0.33,-17.17 -0.4,-34.37 -0.26,-51.6 1.13,-140.91 21.42,-279.82 67.61,-413.25 11.79,-34.08 24.94,-67.49 39.36,-100.24zm-4446.4 472.29c23.86,-84.81 91.31,-150.67 181.13,-171.58 245.06,-57.06 496.45,-98.16 747.8,-113.03 121.47,-7.19 246.13,-7.25 366.76,10.06 116.11,16.67 232.72,49.15 331.87,113.66 125.8,81.85 196.44,210.07 211.66,358.57 11.59,113.13 -5.03,244.75 -26.75,355.52 -33.57,171.19 -41.95,360.49 -45.92,534.6 -2.88,126.09 -99,228.71 -224.62,239.83 -95.55,8.45 -190.92,18.89 -286.39,28.11 -94.98,9.18 -189.9,17.56 -284.2,32.54 -30.22,4.8 -59.65,4.37 -87.67,-1.09 -23.35,16.12 -49.97,28.29 -79.34,36.02 -89.37,23.51 -179.4,39.98 -270.68,53.89 -125.23,19.08 -264.28,34.11 -389.9,12.91 -101.24,-17.08 -193.96,-57.54 -268.99,-122.98 -0.62,6.03 -1.25,12.05 -1.89,18.07 -11.71,109.95 -91.03,195.77 -199.71,216.1 -120.47,22.54 -241.18,45.17 -360.77,72.04 -132.41,29.74 -264.45,63.33 -396.43,95.11 -108.69,26.16 -217.47,-21.21 -272.34,-118.61 -32.14,-57.03 -63.36,-115.28 -96.62,-171.59 -57.1,-96.69 -111.17,-195.21 -162.91,-294.89 -31.21,197.16 -60.94,394.56 -89.3,592.15 -14.26,99.34 -82.17,176.25 -178.99,202.69 -97.28,26.56 -194.59,53.17 -291.63,80.61 -104.97,29.68 -209.95,63.74 -314.06,96.41 -85.58,26.86 -172.24,7.94 -238.84,-52.14 -66.6,-60.07 -94.31,-144.34 -76.38,-232.22 25.6,-125.43 51,-250.88 79.74,-375.64 41.29,-209.78 79.26,-420.2 122.14,-629.68 40.3,-196.85 81.07,-394.21 107.52,-593.51 -10.27,-160.95 -20.3,-321.92 -27.21,-483.05 -10.47,-91.29 -17.62,-182.88 -26.49,-274.33 -7.17,-73.99 15.88,-140.51 67.29,-194.21 51.42,-53.69 116.88,-79.59 191.12,-75.62 130.36,6.96 260.8,12.07 391.15,19.07 112.1,6.02 224.26,10.59 336.47,13.9 87.34,2.57 161.17,46.34 205.34,121.72 105.1,179.38 209.31,359.78 320.78,535.36 -9.41,-116.01 -20.97,-231.39 -32.48,-348.56 -7.36,-74.95 16.35,-142.41 68.97,-196.27 52.62,-53.87 119.51,-79.14 194.6,-73.54 91.6,6.84 183.16,11.69 274.92,15.53 93.15,3.9 186.54,6.42 279.74,9.79 130.11,4.7 233.79,109.26 237.41,239.4 3.56,128.26 6.46,256.56 12.44,384.74 0.54,11.41 1.09,22.79 1.66,34.14zm-4725.32 203.18c-16.92,-11.43 -32.73,-25.2 -47.16,-41.23 -57.92,-64.29 -77.45,-146.8 -54.51,-230.24 47.71,-173.51 85.39,-350.25 120.19,-526.75 22.58,-114.51 118.85,-195.71 235.52,-198.66 101.66,-2.57 203.29,-6.43 304.91,-10.35 92.33,-3.57 184.64,-8.18 276.9,-13.34 114.19,-6.39 214.83,63.36 248.95,172.53 49.7,159.06 108.3,318.27 165.6,474.74 27.98,76.42 18.58,154.42 -26.76,222 -15.73,23.46 -34.28,43.39 -55.18,59.55 84.51,55.4 158.06,126.03 216.88,210.63 90.55,130.25 141.53,278.99 159.62,436.04 18.36,159.49 5.23,322.87 -21.73,480.62 -28.05,164.15 -76.31,322.86 -138.98,476.98 -68.34,168.11 -162.11,326.11 -268.57,472.74 -117.34,161.61 -256.06,301.67 -415.99,421.13 -150.23,112.21 -314.38,205.49 -491.82,267.22 -157.33,54.73 -326.56,85.96 -493.02,63.06 -176.85,-24.34 -328.13,-106.79 -435.61,-249.97 -105.19,-140.12 -150.16,-311.58 -160.64,-484.27 -11.28,-186.16 10.15,-374.89 47.94,-557.09 40.83,-196.79 104.6,-388.23 184.75,-572.4 79.65,-183.02 176.25,-357.11 296.79,-516.39 -6.87,1.07 -13.85,1.86 -20.91,2.36 -143.83,10.25 -289.26,23.34 -432.46,43.67 -52.03,232.85 -109.38,464.27 -168.02,695.65 -90.9,358.76 -185.12,717.05 -267.1,1077.97 -60.32,265.55 -118.81,542.95 -148.54,813.84 -11.18,101.81 -79.24,182.28 -177.79,210.19 -110.41,31.28 -220.64,63.9 -331.2,94.51 -119.99,33.23 -240.75,64.29 -360.88,97.32 -83.48,22.95 -166.05,3.38 -230.34,-54.61 -64.3,-57.98 -92.27,-138.09 -78.04,-223.5 77.97,-467.69 196.51,-931.28 318.55,-1389.2 98.25,-368.63 192.95,-738.1 279.33,-1109.61 -88.71,18.97 -177.45,37.85 -266.23,56.53 -83.52,17.58 -163.47,-5.97 -224.12,-66.03 -60.65,-60.05 -84.99,-139.76 -68.24,-223.46 18.52,-92.51 41.26,-185.76 52.98,-279.37 19.42,-155 6.31,-326.96 1.81,-483.32 -3.6,-124.7 84.84,-231.17 208.07,-250.52 316.38,-49.68 632.81,-98.91 949.49,-146.64 119.66,-18.04 239.45,-35.14 359.54,-50.08 113.64,-14.14 227.34,-27.8 341.1,-40.88 62.29,-7.15 124.67,-13.56 186.94,-20.85 72.4,-8.47 137.98,12.2 192.43,60.66 54.45,48.45 82.61,111.19 82.61,184.08 0,78.9 1.5,157.8 3.52,236.67 2.75,107.2 7.35,214.25 10.77,321.4 2.23,69.8 0.28,138.4 -5.13,207.82 45.44,-43.3 93.3,-83.95 143.78,-121.15zm251.39 1501.75c40.05,-45.79 72.09,-105.51 94.87,-160.43 35.9,-86.57 63.55,-175.62 81.04,-267.76 4.85,-25.53 9.61,-53.59 12.67,-81.85 -36.19,43.8 -65.13,97.42 -87.08,147.92 -38.91,89.52 -69.93,182.95 -88.69,278.83 -3.47,17.68 -8.89,49.43 -12.81,83.29zm9896.42 -1715.48c5.64,-4.43 10.84,-9.16 15.35,-13.55 26.39,-25.62 45.23,-71.05 56.38,-105.2 20.05,-61.38 31.08,-125.22 31.08,-189.85 0,-14.59 -0.28,-31.43 -1.4,-48.55 -6.26,5 -12.18,10.55 -17.8,16.66 -27.32,29.71 -46.33,67.26 -58.7,105.42 -17.72,54.65 -27.15,111.68 -27.65,169.14 -0.12,13.88 0.25,41.23 2.74,65.93zm2030.81 -1037.42c-2.04,15.58 -3.96,31.16 -5.65,46.72 -5.75,53.02 -9.6,106.61 -13.72,159.78 -4.13,53.32 -9.7,107.39 -12.13,160.76 -2.38,52.2 0.36,105.23 9.98,156.82 18.39,-35.01 32.21,-73.96 42.5,-109.41 25.75,-88.68 34.51,-185.99 39.22,-277.92 1.74,-34.1 2.95,-110.69 -7.42,-165.08 -17.58,8.12 -35.37,17.84 -52.78,28.33z"/>
   <g>
    <path class="fil2" d="M-12517.04 9406.48c-194.86,41.93 -389.71,83.89 -584.75,124.95 -12.75,2.68 -24.95,-0.92 -34.21,-10.08 -9.26,-9.17 -12.97,-21.34 -10.42,-34.11 19.59,-97.82 43.03,-195.34 55.43,-294.41 10.15,-81.02 11.9,-163.34 11.04,-244.91 -0.96,-90.14 -5.11,-180.27 -7.7,-270.37 -0.55,-19.04 12.95,-35.29 31.76,-38.24 315.95,-49.62 631.95,-98.79 948.2,-146.45 117.89,-17.76 235.9,-34.63 354.21,-49.34 112.99,-14.06 226.04,-27.64 339.17,-40.65 62.42,-7.17 124.94,-13.6 187.36,-20.9 11.04,-1.29 21.06,1.86 29.37,9.26 8.31,7.4 12.61,16.97 12.61,28.1 0,80.68 1.52,161.37 3.59,242.02 2.75,107.64 7.37,215.12 10.8,322.72 2.11,65.96 -0.01,130.57 -5.52,196.27 -1.55,18.61 -16.18,33.05 -34.8,34.38 -170.63,12.15 -343.22,28.27 -512.24,54.99 -26.35,4.16 -52.64,8.65 -78.95,13.02 -59.15,277.74 -127.1,553.04 -196.85,828.29 -91.33,360.44 -185.95,720.38 -268.32,1083 -35.38,155.77 -68.5,312.25 -97.07,469.42 -22.16,121.83 -41.9,244.77 -55.41,367.89 -1.7,15.54 -12.09,27.82 -27.13,32.08 -110.02,31.16 -219.86,63.68 -330.03,94.18 -41.33,11.45 -82.94,22.22 -124.39,33.28 -78.79,21.02 -157.5,42.31 -236.12,63.93 -12.74,3.51 -25.35,0.52 -35.16,-8.33 -9.81,-8.85 -14.08,-21.08 -11.91,-34.11 37.42,-224.5 84.68,-447.48 136.69,-669.02 55.07,-234.59 115.6,-467.92 177.66,-700.75 126.98,-476.46 248.05,-954.31 353.09,-1436.11zm2268.67 -365.67c122.63,-14.46 247.36,0.87 362.37,46.02 112.06,43.98 207.83,116.3 276.67,215.31 70.78,101.81 109.5,218.07 123.62,340.74 16.04,139.32 3.43,283.8 -20.11,421.56 -25.5,149.21 -69.63,293.42 -126.58,433.52 -61.95,152.38 -147.63,295.81 -244.12,428.7 -105,144.62 -228.87,269.63 -371.97,376.52 -132.99,99.33 -278.37,182.64 -435.48,237.3 -125.15,43.54 -263.32,71.66 -395.96,53.41 -121.51,-16.72 -223.13,-69.95 -297.09,-168.47 -79.77,-106.26 -111.29,-241.03 -119.2,-371.56 -10.16,-167.43 9.98,-338.21 43.97,-502.04 37.9,-182.72 97.33,-360.49 171.75,-531.49 73.7,-169.33 162.94,-330.61 274.89,-477.74 100.67,-132.29 219.15,-255.95 359.04,-347.07 121.46,-79.12 253.2,-137.61 398.2,-154.71zm7.51 -359.5c-19.73,51.25 -39.96,102.32 -60.01,153.44 -5.6,14.3 -18.43,23.36 -33.77,23.86 -54.51,1.81 -108.82,5.7 -163.05,11.5 -61.39,6.56 -122.57,14.85 -183.49,24.93 -13.03,2.16 -25.24,-2.12 -34.08,-11.93 -8.84,-9.82 -11.82,-22.41 -8.32,-35.15 49.07,-178.48 87.91,-360.16 123.71,-541.72 3.45,-17.48 18.14,-29.87 35.95,-30.32 102.59,-2.59 205.14,-6.48 307.69,-10.44 93.54,-3.61 187.04,-8.28 280.5,-13.51 17.43,-0.97 32.79,9.67 38,26.34 19.87,63.58 41.52,126.81 63.38,189.73 34.22,98.49 69.59,196.62 105.45,294.53 4.27,11.66 2.83,23.57 -4.09,33.89 -6.92,10.31 -17.39,16.15 -29.8,16.62 -56.39,2.15 -113.23,3.71 -169.45,8.51 -52.89,4.51 -106.16,11.54 -158.82,18.29 -15.83,2.02 -30.52,-5.59 -38,-19.69 -24.42,-46.04 -48.25,-92.39 -71.8,-138.88zm1828.3 -48c-10.8,-92.49 -17.96,-185.35 -26.95,-278.02 -1.09,-11.29 2.43,-21.45 10.27,-29.64 7.85,-8.2 17.84,-12.15 29.18,-11.55 130.34,6.97 260.77,12.07 391.09,19.07 113.78,6.11 227.63,10.75 341.52,14.11 13.33,0.39 24.6,7.08 31.34,18.58 118.94,202.98 236.78,407.11 364.94,604.46 113.43,174.64 212.56,355.85 299.97,544.8 0.33,0.71 0.59,1.32 0.87,2.04 5.1,12.98 10.31,25.93 15.63,38.83 10.18,-54.62 19.57,-109.33 26.84,-164.86 16.24,-123.89 22.46,-247.83 16.52,-372.7 -5.72,-120.49 -14.17,-240.74 -25.24,-360.85 -7.1,-77.07 -15.72,-153.89 -23.28,-230.89 -1.12,-11.44 2.49,-21.73 10.53,-29.95 8.03,-8.23 18.24,-12.09 29.7,-11.23 93.86,7.01 187.69,11.99 281.72,15.92 93.56,3.92 187.34,6.45 280.94,9.84 19.86,0.72 35.68,16.67 36.24,36.54 3.6,129.58 6.54,259.19 12.59,388.68 8.52,182.43 25.13,363.65 -4.04,545.37 -28.77,179.19 -63.91,357.44 -88.18,537.33 -13.65,101.22 -21.49,203.14 -32.31,304.69 -1.79,16.78 -13.89,29.88 -30.48,32.98 -122.95,23 -246.09,46.13 -368.14,73.55 -133.45,29.98 -266.51,63.81 -399.53,95.83 -16.59,3.99 -33.2,-3.24 -41.57,-18.11 -32.84,-58.27 -64.75,-117.71 -98.74,-175.26 -72.2,-122.25 -139.36,-247.56 -203.08,-374.42 -63.56,-126.56 -118.84,-256.88 -169.15,-389.22 -18.89,-49.66 -37.66,-99.14 -57.22,-148.32 -33.18,215.41 -73.2,429.65 -111.99,643.46 -34.1,213.83 -66.47,427.93 -97.24,642.26 -2.17,15.16 -12.54,26.9 -27.31,30.94 -97.89,26.73 -195.8,53.5 -293.44,81.11 -40.96,11.58 -81.76,24.14 -122.44,36.65 -65.85,20.24 -131.6,40.84 -197.33,61.47 -13.07,4.1 -26.29,1.21 -36.46,-7.96 -10.17,-9.17 -14.39,-22.03 -11.66,-35.44 25.47,-124.8 50.72,-249.64 79.37,-373.75 41.44,-210.37 79.49,-421.39 122.49,-631.44 42.67,-208.49 85.61,-417.28 112.62,-628.49 -10.78,-168.73 -21.44,-337.48 -28.59,-506.41zm3262.2 916.78c-9.73,4.25 -19.5,8.41 -29.29,12.48 -38.1,15.83 -80.53,28.62 -119.78,41.58 -40.66,13.42 -80.92,27.79 -120.91,43.09 -24.25,9.28 -51.52,21.04 -72.75,36.13 -13.25,9.42 -29.99,22.41 -39.03,36.15 -5.69,8.66 -7.83,19.27 -8.26,29.48 -0.62,14.98 7.12,23.29 19.63,30.8 24.18,14.52 76.05,10.73 102.64,7.78 21.69,-2.41 43.01,-5.52 64.3,-10.37 30.9,-7.02 64.93,-20.1 94.87,-30.74 14.92,-5.31 30.74,-1.12 41.08,10.87 10.34,12 12.16,28.27 4.71,42.24 -43.11,80.95 -77.74,171.91 -107.57,258.48 -4.22,12.24 -13.47,20.82 -25.99,24.12 -82.18,21.62 -165.08,36.61 -249.01,49.4 -100.61,15.33 -222.83,30.46 -323.71,13.44 -83,-14.01 -157.1,-50.81 -207.8,-119.28 -44.51,-60.12 -66.6,-129.35 -61.36,-204.02 3.33,-47.43 16.23,-91.07 38.54,-133.11 24.23,-45.68 51.26,-87.63 87.11,-125.21 41.19,-43.18 88.39,-78.13 139.3,-108.95 61.6,-37.3 137.2,-65.65 204.75,-90.48 102.85,-37.8 209.64,-67.01 316.46,-91.19 46.43,-10.52 92.94,-21.29 138.82,-34.01 26.06,-7.23 59.57,-16.18 83.95,-27.84 10.58,-5.05 26.95,-12.5 35.54,-20.55 4.81,-4.52 7.98,-8.85 10.24,-15.04 1.34,-3.66 3.65,-9.72 3.27,-13.79 -1.54,-16.92 -15.12,-25.39 -29.91,-30.99 -36,-13.61 -85.62,-13.15 -123.49,-11.15 -88.54,4.67 -178.03,22.47 -263.59,45.14 -109.01,28.88 -216.33,67.05 -320.92,109.06 -12.75,5.13 -26.24,3.24 -37.09,-5.2 -10.86,-8.44 -16.02,-21.03 -14.21,-34.66 7.3,-54.83 12.66,-109.4 15.96,-164.6 2.8,-46.81 4.05,-94.03 5.36,-140.91 0.48,-17.32 12.18,-31.65 29.06,-35.58 233.51,-54.37 473.27,-93.78 712.79,-107.95 107.16,-6.34 218.32,-6.97 324.76,8.31 84.61,12.14 175.25,34.87 247.66,81.99 72.7,47.3 109.07,119.44 117.83,204.85 3.62,35.31 2.89,72.79 0.8,108.15 -3.69,62.28 -12.74,124.72 -24.74,185.9 -16.19,82.53 -26.22,166.91 -33.48,250.66 -9.2,106.13 -13.86,212.87 -16.29,319.36 -0.44,19.24 -15.11,34.91 -34.29,36.6 -96.11,8.51 -192.02,19 -288.06,28.28 -99.29,9.59 -198.29,18.49 -296.88,34.15 -12.36,1.96 -23.86,-1.81 -32.66,-10.71 -8.79,-8.9 -12.43,-20.44 -10.31,-32.78 10.68,-62.44 17.1,-127.46 24.01,-190.45 9.47,-86.3 18.56,-172.63 27.94,-258.93zm3438.21 -338.74c-23.26,77.77 -35.51,166.29 -45.58,246.73 -10.32,82.48 -13.39,161.62 -15.94,244.39 -0.53,16.9 -11.66,30.9 -28.01,35.21 -183.48,48.35 -372.22,85.31 -561.37,101.99 -150.75,13.29 -305.69,10.33 -454.95,-15.8 -140.06,-24.52 -274.13,-67.35 -399.04,-135.7 -109.22,-59.75 -208.26,-141.32 -261.23,-256.58 -47.22,-102.73 -51.1,-224.04 -55.67,-335.28 -6.01,-146.33 12.16,-285.1 75.73,-418.22 66.24,-138.7 161.67,-256.76 275.49,-359.3 124.6,-112.23 262.29,-209.48 408.8,-290.97 149.1,-82.94 304.6,-155.21 465.01,-213.48 180.16,-65.45 371.03,-113.33 557.69,-156.32 10.98,-2.53 21.42,-0.41 30.53,6.21 9.12,6.62 14.38,15.89 15.37,27.11 3.56,40.08 5.89,80.24 9.04,120.34 4.46,56.67 12.71,113.2 17.98,169.86 5.07,54.58 7.29,109.35 10.89,164.03 1.33,20.21 -13.59,37.85 -33.74,39.89 -94.12,9.54 -186.82,23.74 -279.73,41.36 -64.98,12.32 -130.92,26.77 -194.13,46.34 -126.56,39.2 -242.17,98.05 -349.59,175.45 -94.04,67.76 -175.27,149.19 -232.53,250.65 -50.12,88.78 -78.23,184.12 -72.7,286.44 4.12,76.21 20.49,153.25 65.25,216.54 42.25,59.74 102.38,98.08 171.64,119.95 93.14,29.39 205.16,23.27 300.59,9.71 74.78,-10.64 149.22,-26.95 221.58,-48.63 45.82,-13.72 91.1,-30.16 135.74,-47.29 57.83,-22.19 115.14,-45.91 172.19,-70.04 13.73,-5.81 28.64,-3.33 39.75,6.62 11.11,9.95 15.21,24.5 10.94,38.79zm1112.7 -1528.94c117.03,-45.81 242.83,-77.16 369.16,-75.79 112.93,1.22 218.52,29.49 307.75,100.44 89.84,71.43 144.93,168.08 178.35,276.75 38.91,126.52 45.6,266.49 43.11,398.09 -2.71,142.95 -22.26,285.69 -60.87,423.44 -40,142.72 -108.52,276.54 -186.26,402.11 -76.96,124.33 -171.78,229.75 -297.01,306.89 -118.51,73 -249.91,118.95 -387.77,137.51 -124.3,16.73 -251.46,10.42 -373.75,-17.2 -115.26,-26.02 -219.81,-73.19 -312.49,-146.89 -86.4,-68.7 -150.75,-154.36 -186.95,-258.88 -36.09,-104.23 -44.4,-215.54 -43.52,-325.11 0.95,-118.13 17.4,-234.75 56.13,-346.65 43.15,-124.67 107.88,-238.47 187.64,-343.27 90.01,-118.27 196.27,-220.17 315.79,-308.31 121.45,-89.57 249.8,-167.99 390.69,-223.13zm1658.51 1472.27c4.29,176.21 16.96,352.14 34.47,527.52 21.2,212.24 43.9,426.34 75.46,637.32 1.63,10.87 -1.11,20.85 -8.07,29.36 -6.95,8.51 -16.17,13.19 -27.15,13.76 -98.42,5.17 -196.73,11.34 -295.07,17.81 -101.37,6.67 -202.66,14.19 -303.9,22.72 -10.41,0.87 -19.69,-2.13 -27.62,-8.93 -7.94,-6.8 -12.32,-15.51 -13.05,-25.94 -19.76,-283.31 -42.07,-566.49 -57.7,-850.08 -12.42,-225.17 -2.72,-448.25 16.29,-672.69 15.38,-181.52 23.4,-362.94 34.18,-544.7 18.84,-317.52 32.21,-635.3 43.21,-953.18 0.45,-12.98 6.82,-23.92 17.87,-30.73 89.7,-55.22 179.7,-110.02 270.39,-163.6 67.21,-39.72 134.94,-79.01 203.64,-116.13 114,-61.58 229.67,-119.45 349.69,-168.43 126.56,-51.66 265.41,-89.15 402.72,-91.98 129.8,-2.69 236.32,45.92 313.94,150.52 83.67,112.75 130.05,251.45 156.31,388.1 32.68,170 40.08,345.11 31.27,517.75 -8.75,171.25 -31.13,341.05 -67.49,508.65 -34.97,161.11 -85.85,317.55 -155.89,466.9 -55.75,118.85 -126.72,239.62 -220.14,332.97 -75.16,75.11 -167.13,127.33 -271.56,148.08 -52.71,10.48 -106.9,12.22 -160.35,7.34 -54.74,-5.01 -108.93,-15.93 -160.11,-36.36 -43.04,-17.19 -85.32,-38.23 -123.98,-63.87 -19.55,-12.97 -38.71,-27.22 -57.36,-42.18zm2292.9 -1385.41c-7,6.24 -14.09,12.28 -21.26,18.05 -37.27,30.02 -74.46,59.56 -112.83,88.2 -42.03,31.36 -86.18,62.67 -126.22,96.43 -28.36,23.91 -53.27,51.59 -74.52,81.99 -19.38,27.73 -34.88,57.95 -45.62,90.05 -10.25,30.61 -14.33,64.47 -16.14,96.59 -2.27,40.47 3.23,83.15 27.31,116.92 19.58,27.45 54.71,25.43 84.51,19.42 20.23,-4.08 39.41,-11.1 58.04,-19.9 32.04,-15.14 64.2,-37.71 91.94,-59.53 12.82,-10.08 29.83,-10.9 43.56,-2.09 13.73,8.8 20.08,24.6 16.26,40.46 -46.34,192.45 -85.22,386.77 -118.43,581.9 -2.12,12.42 -9.47,22.16 -20.83,27.61 -79.6,38.15 -162.03,69.14 -249.01,85.48 -107.37,20.17 -224.27,20.09 -323.41,-31.25 -100.73,-52.17 -161.24,-153.19 -195.11,-258.06 -39.63,-122.69 -56.85,-249.42 -52.26,-378.3 2.88,-80.89 13.46,-160.87 33.6,-239.32 21.21,-82.61 50.96,-163.09 87.06,-240.33 36.38,-77.83 81.36,-151.05 134.16,-218.81 58.05,-74.48 127.61,-140.5 200.44,-200.33 97.42,-80.03 205.76,-150.01 315.29,-212.19 47.72,-27.09 94.42,-55.97 139.45,-87.34 29.23,-20.37 65.23,-44.78 90.32,-70.07 15.08,-15.2 26.74,-33.51 36.6,-52.42 8.64,-16.56 21.67,-38.03 25.29,-56.34 4.16,-21.03 7.45,-42.3 8.32,-63.74 1.31,-32.23 0.24,-85.31 -25.73,-109.21 -25.59,-23.57 -72,-14.58 -101.9,-6.69 -212.93,56.21 -459.52,264.97 -618.57,410.89 -12.01,11.03 -28.92,13.13 -43.27,5.39 -14.36,-7.74 -21.89,-23.02 -19.28,-39.12 11.34,-69.93 22.17,-139.97 31.95,-210.13 6.09,-43.71 11.94,-87.65 16.42,-131.55 9.97,-97.7 21.92,-195.36 32.47,-293.03 1.2,-11.16 6.59,-20.3 15.78,-26.74 127.59,-89.6 260.32,-174.5 398.31,-247.26 107.69,-56.77 222.02,-108.1 339.17,-141.95 111.51,-32.23 224.02,-42.43 337.23,-12.54 107.42,28.36 190.64,94.2 246.41,190.35 70.45,121.49 76.91,303.11 71.73,439.83 -2.99,79.05 -9.31,158.75 -15.65,237.58 -11.26,140.09 -24.5,280.08 -38.58,419.91 -19.7,195.79 -35.6,392.07 -49.69,588.33 -17.84,248.48 -32.64,497.21 -45.69,745.99 -0.95,18.15 -14.29,32.73 -32.28,35.27 -95.39,13.52 -190.44,29.28 -285.33,45.95 -96.53,16.95 -192.78,35.9 -288.39,57.47 -12.13,2.73 -23.78,-0.24 -33.12,-8.45 -9.33,-8.22 -13.77,-19.39 -12.6,-31.77 13.68,-145.19 24.55,-290.95 35.77,-436.36 16.33,-211.73 32.26,-423.49 48.33,-635.24zm-13695.5 2017.64c-64.6,11.8 -120.27,51.33 -165.68,97.13 -65.66,66.24 -115.63,151.34 -152.62,236.42 -44.95,103.41 -80.44,211.23 -102.11,321.96 -18.39,93.94 -40.34,252.22 8.61,340.57 33.55,60.58 81.49,71.2 146.02,52.8 69.34,-19.77 128.41,-62.53 177.79,-114.1 63.39,-66.21 112.47,-152.06 147.42,-236.31 41.39,-99.8 73.14,-202.59 93.3,-308.8 13.9,-73.19 24.31,-153.13 17.52,-227.63 -4.34,-47.63 -18.4,-99 -53.67,-133.34 -33.52,-32.65 -71.54,-36.93 -116.58,-28.7zm9753.24 -1518.22c-60,19.57 -112.46,53.35 -155.19,99.82 -47.87,52.04 -81.91,115.33 -103.65,182.37 -24.27,74.86 -37.13,153.01 -37.81,231.72 -0.67,75.95 5.9,181.71 59.03,241.72 44.18,49.89 97.09,60.51 160.89,47.72 59.39,-11.9 109.38,-43.67 152.41,-85.46 52.69,-51.15 86.85,-121.12 109.4,-190.15 26.89,-82.32 41.39,-168.03 41.39,-254.69 0,-59.69 -4.46,-125.57 -23.32,-182.57 -12.97,-39.18 -35.56,-72.51 -73.85,-90.28 -42.34,-19.65 -86,-14.33 -129.3,-0.2zm1751.78 -577.08c-6.73,48.41 -14.06,97.02 -19.33,145.52 -5.98,55.16 -10.02,110.85 -14.31,166.17 -4.3,55.57 -10,111.74 -12.54,167.37 -4.17,91.65 4.22,184.43 29.25,272.86 14.61,51.61 40.52,106.32 84.05,139.74 33.15,25.46 67.83,35.77 108.85,25.87 53.21,-12.84 95.8,-52.08 128.94,-93.85 52.55,-66.22 87.08,-148.87 110.49,-229.48 30.47,-104.96 41.65,-216.65 47.22,-325.47 5.34,-104.31 1.73,-248.72 -58.58,-338.88 -48.37,-72.3 -117.01,-73.55 -194.38,-46.87 -73.25,25.26 -146.32,71.15 -209.66,117.02z"/>
   </g>
   <path class="fil3" d="M-13147.38 12218.54c72.09,-432.46 186.59,-889.74 313.59,-1366.27 127.11,-476.97 254.11,-975.63 365.85,-1494.83 -214.46,46.14 -425.33,91.66 -641.6,137.18 19.83,-99.04 43.4,-197.54 55.87,-297.12 19.98,-159.51 9.01,-333.42 3.61,-521.04 270.34,-42.45 585.8,-91.82 947.98,-146.4 115.41,-17.39 232.49,-33.84 353.24,-49.22 111.74,-13.53 225.28,-27.68 338.82,-40.6 63.08,-7.38 124.36,-13.53 187.44,-20.91 0,80.58 1.54,162.41 3.6,242.98 3.34,130.42 8.12,238.55 10.81,322.96 2.71,84.85 -1.8,148.87 -5.41,191.93 -207.25,14.76 -380.34,34.01 -515.44,55.36 -36.11,5.71 -70.28,11.69 -104.53,17.23 -64.88,307.58 -135.87,591.6 -201.85,851.99 -94.41,372.61 -188.86,733.14 -268.53,1083.91 -78.93,347.46 -129.76,628.08 -153.19,841.54 -169.42,47.98 -279.14,80.08 -329.81,94.11 -44.86,12.42 -165.81,43.68 -360.45,97.2zm2903.41 -3140.38c117.11,-13.81 234.54,0.62 344.23,43.67 106.57,41.83 195.73,110.01 259.53,201.78 62.35,89.7 102.6,197.26 117.14,323.57 14.29,124.08 5.71,261.5 -19.82,410.93 -24.92,145.84 -67.67,286.25 -124.36,425.68 -56.86,139.86 -137.89,280.54 -239.7,420.77 -103.64,142.75 -224.27,264.07 -364.05,368.48 -137.76,102.91 -279.46,181.17 -425.33,231.92 -135.27,47.06 -263.35,67.51 -378.47,51.67 -117.39,-16.15 -207.41,-67.56 -272.14,-153.79 -65.03,-86.63 -102.82,-204.1 -111.74,-351.25 -9.1,-150 6.41,-314.52 43.25,-492.13 37.05,-178.56 95.23,-353.67 169.42,-524.12 73.6,-169.13 160.95,-326.22 270.33,-469.97 106.88,-140.46 222.8,-255.72 349.64,-338.34 129.09,-84.09 254.08,-133.78 382.07,-148.87zm-106.33 671.75c-63.22,11.55 -125.42,46.92 -185.63,107.65 -60.55,61.08 -115.46,144.52 -160.4,247.91 -45.17,103.92 -81.98,214.52 -104.53,329.73 -33.32,170.22 -28.15,292.43 12.62,366.02 40.33,72.82 102.74,95.4 189.23,70.74 66.7,-19.01 132.22,-59.07 194.64,-124.26 58.42,-61.01 112.73,-146 155,-247.91 42.43,-102.32 74.76,-206.87 95.51,-316.19 17.09,-90 24.3,-169.25 18.03,-238.07 -6.35,-69.59 -29.17,-122.07 -64.88,-156.86 -38.18,-37.19 -84.85,-50.58 -149.59,-38.76zm-337.02 -891.98c46.86,-170.4 86.51,-352.48 124.35,-544.41 97.32,-2.46 196.43,-6.14 308.19,-10.46 79.28,-3.06 171.21,-7.38 281.15,-13.53 28.83,92.27 84.71,254.67 169.41,485.97 -64.88,2.46 -120.75,4.31 -171.21,8.61 -36.05,3.08 -88.31,9.23 -160.4,18.46 -37.85,-71.36 -73.9,-142.72 -109.94,-214.69 -28.84,78.12 -59.47,155.02 -90.11,233.14 -55.87,1.85 -109.99,5.72 -165.81,11.69 -64.93,6.94 -126.16,15.38 -185.63,25.22zm2025.72 1922.99c25.23,-123.65 50.46,-248.53 79.3,-373.41 41.45,-210.38 79.43,-421.1 122.55,-631.76 43.39,-211.96 86.51,-422 113.55,-634.84 -10.82,-169.17 -21.63,-339.57 -28.84,-510.59 -10.82,-92.27 -18.02,-185.78 -27.03,-278.66 149.58,7.99 277.57,12.97 391.08,19.07 81.13,4.35 196.45,9.84 342.43,14.15 122.55,209.15 240.41,412.77 365.85,605.93 121.49,187.05 216.27,364.79 297.38,540.11 19.82,50.44 41.45,100.88 64.88,150.09 30.63,-158.09 80.17,-380.43 66.68,-664.37 -13.55,-285.31 -37.85,-483.51 -48.66,-593.62 115.34,8.61 210.86,12.97 282.95,15.99 30.63,1.28 127.96,4.31 281.15,9.84 3.61,129.8 7.21,258.99 12.62,389.4 9.01,178.39 25.2,358.19 -3.61,537.65 -28.89,179.95 -63.08,359.25 -88.31,538.26 -12.61,101.5 -21.62,204.23 -32.44,305.73 -131.56,24.61 -254.39,47.98 -369.46,73.82 -95.8,21.52 -228.88,54.75 -400.1,95.97 -45.05,-79.97 -77.15,-138.75 -99.12,-175.94 -69.97,-118.47 -137.21,-243.48 -201.85,-372.17 -65.13,-129.67 -119.59,-259.42 -167.61,-385.7 -31.28,-82.27 -64.88,-172.86 -109.94,-274.36 -36.04,259.59 -84.7,518.57 -131.56,776.94 -34.24,214.69 -66.68,429.38 -97.32,642.84 -126.16,34.45 -225.36,61.86 -293.77,81.2 -57.75,16.33 -164,49.22 -320.8,98.43zm2779.06 -1542.21c10.82,-81.2 14.39,-136.56 16.22,-167.32 1.77,-29.52 3.61,-77.51 5.41,-142.1 272.14,-63.36 508.37,-95.31 706.48,-107.04 113.72,-6.73 221.62,-5.72 317.2,8 97.25,13.96 174.81,38.76 232.49,76.28 57.66,37.52 92.57,95.67 100.92,177.17 4.27,41.65 5.34,136.28 -23.43,282.97 -28.9,147.37 -45.06,339.57 -50.46,576.4 -97.32,8.61 -192.78,19.07 -288.36,28.3 -95.46,9.22 -194.64,17.84 -299.17,34.45 14.42,-84.28 30.63,-257.14 59.47,-517.35 -37.85,17.84 -68.35,31.08 -88.31,39.37 -21.49,8.93 -59.65,21.62 -117.14,40.6 -52.45,17.31 -93.5,32.56 -122.56,43.68 -30.42,11.64 -59.47,25.22 -81.1,40.6 -21.63,15.37 -38.33,30.43 -48.66,46.13 -9.5,14.45 -13.7,31.3 -14.42,48.6 -1.09,26.67 10.92,48.43 37.85,64.59 25.33,15.21 66.67,19.53 126.16,12.92 18,-2 41.69,-4.98 68.48,-11.07 21.93,-4.99 55.87,-16.61 99.13,-31.99 -32.44,60.9 -70.29,148.87 -109.94,263.9 -86.51,22.76 -167.88,36.83 -245.11,48.6 -124.65,19 -230.9,27.18 -311.78,13.53 -79.54,-13.41 -142.03,-48.11 -183.84,-104.57 -41.11,-55.54 -58.46,-116.32 -54.06,-179.01 2.81,-40.05 13.19,-78.43 34.24,-118.11 20.4,-38.46 45.09,-79.13 81.1,-116.88 39.75,-41.67 84.47,-74.22 131.57,-102.74 48.42,-29.31 117.24,-57.57 198.24,-87.35 82.99,-30.5 185.42,-61.2 311.79,-89.81 50.26,-11.38 97.24,-22.44 140.58,-34.45 43.17,-11.98 73.54,-22.22 90.11,-30.14 19.5,-9.32 34.4,-17.07 45.05,-27.07 10.97,-10.29 16.39,-20.14 19.83,-29.53 3.86,-10.54 6.36,-19.73 5.41,-30.14 -2.66,-29.01 -21.41,-50.4 -54.07,-62.75 -34.03,-12.87 -79.3,-16.66 -138.78,-13.53 -162.2,8.55 -362.24,62.75 -596.54,156.86zm4134.35 -38.14c-18.02,60.29 -33.25,144.21 -46.86,252.83 -13.44,107.36 -14.42,189.47 -16.22,247.91 -205.45,54.14 -391.11,86.43 -555.09,100.89 -156.82,13.83 -308.08,8.62 -445.15,-15.38 -140.47,-24.59 -268.74,-66.67 -387.48,-131.64 -117.36,-64.21 -200.74,-142.76 -245.11,-239.3 -42.17,-91.77 -47.27,-199.4 -52.27,-321.11 -5.82,-141.93 11.67,-273.95 72.1,-400.47 60.32,-126.31 148.45,-241.02 266.73,-347.56 121.42,-109.38 256.44,-205.14 401.9,-286.05 146.5,-81.49 300.71,-153.29 459.57,-211 149.32,-54.25 331.61,-103.96 553.29,-155.02 3.6,40.6 5.87,80.05 9.01,119.96 4.07,51.79 12.23,108.12 18.02,170.39 5.02,54.02 7.21,108.27 10.81,163.02 -115.34,11.69 -208.8,27.77 -282.95,41.83 -71.84,13.62 -140.4,29.45 -198.24,47.37 -136.81,42.37 -254.58,104.56 -360.45,180.85 -105.02,75.67 -186.35,161.78 -243.31,262.68 -56.59,100.27 -83.15,202.29 -77.49,306.96 5.15,95.27 27.78,173.56 72.09,236.22 44,62.22 108.06,107.91 191.04,134.1 84.62,26.72 190.96,29.03 317.19,11.08 68.42,-9.73 146.24,-25.61 227.08,-49.83 81.36,-24.37 183.83,-64.59 311.79,-118.73zm1162.45 -1483.14c124.32,-48.67 243.31,-74.42 355.04,-73.2 115.35,1.24 209.02,32.05 284.76,92.27 77.44,61.57 131.57,147.07 165.8,258.37 34.26,111.41 44.2,241.06 41.46,386.32 -2.66,140.22 -21.84,279.72 -59.48,414 -38.06,135.78 -103.62,265.81 -182.03,392.47 -76.58,123.71 -167.69,222.55 -284.75,294.66 -113.62,69.99 -239.63,114.3 -373.07,132.26 -122.48,16.48 -245.01,9.45 -360.45,-16.61 -118.85,-26.84 -215.61,-74.64 -297.36,-139.64 -82.26,-65.41 -141.48,-145.49 -174.82,-241.76 -33.35,-96.28 -42.35,-200.53 -41.45,-312.5 0.9,-111.96 15.98,-224.6 54.06,-334.65 39.43,-113.91 99.15,-223.9 182.03,-332.8 84.73,-111.32 186.2,-210.85 308.18,-300.81 124.92,-92.12 248.69,-166.16 382.08,-218.38zm-16.22 515.5c-62.82,20.49 -121.72,56.31 -171.21,110.11 -47.85,52.02 -86.42,118.15 -111.74,196.24 -25.14,77.54 -38.93,159.33 -39.65,242.99 -1.07,123.04 19.32,211.44 68.48,266.98 49.96,56.42 113.67,76.27 196.45,59.67 61.4,-12.31 118.16,-43.84 171.21,-95.35 51.5,-50.01 90.93,-119.69 118.95,-205.47 27.84,-85.24 43.25,-174.68 43.25,-266.36 0,-74.45 -7.28,-140.18 -25.23,-194.39 -18.11,-54.72 -50.14,-92.35 -93.71,-112.57 -46.55,-21.61 -97.06,-21.34 -156.8,-1.85zm1133.61 2132.76c-19.82,-284.21 -42.13,-567.65 -57.67,-849.54 -13.29,-241.01 -0.93,-464.98 16.22,-667.45 17.09,-201.69 24.65,-383.89 34.24,-545.64 19.24,-324.22 32.44,-641.61 43.26,-954.11 201.85,-124.26 360.22,-218.18 472.18,-278.67 116.92,-63.16 228.61,-118.78 346.04,-166.7 140.3,-57.27 272.15,-86.78 389.28,-89.2 120.76,-2.5 214.18,42.65 282.95,135.33 70,94.33 119.88,218.2 149.59,372.79 29.76,154.84 40.02,324.82 30.64,508.73 -8.64,169.19 -30.52,335.91 -66.69,502.59 -35.91,165.5 -86.77,317.3 -153.19,458.91 -65.14,138.89 -135.75,245.48 -212.66,322.34 -72.68,72.62 -158.63,119.18 -252.31,137.79 -48.7,9.68 -99.04,11.39 -149.59,6.77 -50.39,-4.61 -101.26,-14.54 -149.59,-33.83 -47.2,-18.85 -86.23,-39.79 -117.14,-60.29 -32.17,-21.33 -72.09,-52.9 -117.15,-94.12 1.8,204.85 15.53,409.15 36.04,614.55 28.15,281.8 54.07,494.58 75.7,639.15 -117.15,6.15 -214.46,12.5 -295.57,17.83 -68.47,4.51 -173.02,11.69 -304.58,22.77zm594.74 -2695.01c-9.01,66.43 -17.08,120.47 -21.63,162.4 -4.46,41.13 -9.03,97.81 -14.41,167.32 -5.43,70.13 -10.71,126.61 -12.62,168.56 -5.3,116.19 9.85,211.37 30.64,284.81 20.65,72.97 54.66,126.57 97.32,159.33 43.85,33.68 90.09,44.78 140.58,32.6 54.03,-13.03 103.42,-48.85 149.58,-107.03 47.56,-59.94 87.42,-139.99 117.15,-242.38 29.75,-102.46 42.53,-214.18 48.66,-334.03 8.28,-161.93 -12.34,-283.16 -64.88,-361.71 -51.98,-77.7 -129.88,-98.76 -237.9,-61.52 -66.8,23.04 -144.18,66.44 -232.49,131.65zm1490.46 -481.06c27.03,-166.7 42.27,-281.22 48.66,-343.87 6.22,-61.01 18.02,-159.32 32.44,-292.81 282.95,-198.7 526.25,-326.06 726.31,-383.86 117.13,-33.85 219.99,-37.97 317.19,-12.3 93.83,24.77 170.62,81.72 223.48,172.85 51.68,89.12 73.85,230.07 66.68,419.54 -3.63,95.96 -19.83,314.96 -54.07,655.15 -34.24,340.18 -66.68,786.17 -95.51,1336.12 -95.53,13.53 -191.07,29.36 -286.56,46.14 -90.14,15.83 -189.24,35.06 -290.17,57.82 18.03,-191.31 46.86,-582.56 91.92,-1174.34 -36.04,39.99 -67.18,69.5 -90.11,87.97 -22.14,17.84 -59.01,48 -111.74,87.35 -53.6,40.01 -97.02,71.72 -127.96,97.81 -30.34,25.58 -57.53,55.47 -81.1,89.2 -23.29,33.32 -39.56,67.08 -50.47,99.66 -10.72,32.01 -15.87,68.3 -18.02,106.42 -3.26,57.84 8.58,104.89 34.24,140.87 24.8,34.76 64.88,46.08 122.56,34.45 21.61,-4.36 43.25,-11.69 66.68,-22.76 23.43,-11.08 57.67,-31.38 99.12,-63.98 -32.44,134.72 -75.69,330.34 -118.94,584.4 -84.71,40.6 -162.17,67.87 -239.7,82.43 -118.91,22.34 -220.07,13.29 -299.18,-27.68 -77.68,-40.23 -139.04,-119.87 -176.61,-236.22 -38.12,-118.02 -54.94,-239.88 -50.47,-365.4 2.74,-76.87 12.55,-153.82 32.44,-231.31 19.75,-76.91 48.04,-155.3 84.71,-233.75 37.23,-79.65 81.55,-149.75 129.76,-211.62 49.11,-63.01 112.55,-126.95 194.64,-194.39 81.92,-67.29 185.57,-137.91 309.99,-208.54 52.2,-29.63 99.12,-59.06 142.38,-89.19 45.04,-31.38 76.14,-54.91 95.51,-74.44 18.48,-18.62 32.2,-40.32 43.26,-61.52 12.46,-23.88 24.41,-44.07 28.83,-66.43 4.59,-23.2 8.07,-46.16 9.02,-69.51 2.65,-65.26 -8.76,-111.63 -37.85,-138.41 -30.38,-27.97 -75.59,-31.59 -136.97,-15.38 -169.3,44.69 -380.28,186.39 -634.39,419.53z"/>
  </g>
 </g>
</svg>
